<svg width="32" height="31" viewBox="0 0 32 31" fill="none" xmlns="http://www.w3.org/2000/svg">
<mask id="mask0_2334_5651" style="mask-type:luminance" maskUnits="userSpaceOnUse" x="0" y="0" width="32" height="31">
<path d="M15.8108 1L11.3675 5.25004H5.44323V10.9168L1 15.1668L5.44323 19.4169V25.0836H11.3675L15.8108 29.3336L20.254 25.0836H26.1783V19.4169L30.6215 15.1668L26.1783 10.9168V5.25004H20.254L15.8108 1Z" fill="white" stroke="white" stroke-width="2" stroke-linejoin="round"/>
<path d="M15.8106 19.417C16.989 19.417 18.1192 18.9692 18.9524 18.1722C19.7857 17.3752 20.2538 16.2942 20.2538 15.167C20.2538 14.0398 19.7857 12.9588 18.9524 12.1617C18.1192 11.3647 16.989 10.9169 15.8106 10.9169C14.6322 10.9169 13.502 11.3647 12.6688 12.1617C11.8355 12.9588 11.3674 14.0398 11.3674 15.167C11.3674 16.2942 11.8355 17.3752 12.6688 18.1722C13.502 18.9692 14.6322 19.417 15.8106 19.417Z" fill="black" stroke="black" stroke-width="2" stroke-linejoin="round"/>
</mask>
<g mask="url(#mask0_2334_5651)">
<path d="M-1.96237 -1.83319H33.5834V32.1671H-1.96237V-1.83319Z" fill="#001A54"/>
</g>
</svg>
