<svg width="16" height="16" viewBox="0 0 16 16" fill="none" xmlns="http://www.w3.org/2000/svg">
<g clip-path="url(#clip0_3150_3114)">
<path d="M7 10V6H9V10H7ZM8 13C8.26522 13 8.51957 12.8946 8.70711 12.7071C8.89464 12.5196 9 12.2652 9 12C9 11.7348 8.89464 11.4804 8.70711 11.2929C8.51957 11.1054 8.26522 11 8 11C7.73478 11 7.48043 11.1054 7.29289 11.2929C7.10536 11.4804 7 11.7348 7 12C7 12.2652 7.10536 12.5196 7.29289 12.7071C7.48043 12.8946 7.73478 13 8 13Z" fill="#FF7C7C"/>
<path d="M6.382 0H9.618L16 12.764V16H0V12.764L6.382 0ZM7.618 2L2 13.236V14H14V13.236L8.382 2H7.618Z" fill="#FF7C7C"/>
</g>
<defs>
<clipPath id="clip0_3150_3114">
<rect width="16" height="16" fill="white"/>
</clipPath>
</defs>
</svg>
