<svg width="36" height="36" viewBox="0 0 36 36" fill="none" xmlns="http://www.w3.org/2000/svg">
<path fill-rule="evenodd" clip-rule="evenodd" d="M14.5605 3.61347C13.5 4.55397 13.5 6.27447 13.5 9.71397V26.286C13.5 29.7255 13.5 31.446 14.5605 32.3865C15.621 33.327 17.2425 33.045 20.4855 32.4795L23.9805 31.8705C27.5715 31.2435 29.367 30.93 30.4335 29.613C31.5 28.2945 31.5 26.3895 31.5 22.578V13.422C31.5 9.61197 31.5 7.70697 30.435 6.38847C29.367 5.07147 27.57 4.75797 23.979 4.13247L20.487 3.52197C17.244 2.95647 15.6225 2.67447 14.562 3.61497M18 15.2535C18.621 15.2535 19.125 15.78 19.125 16.4295V19.5705C19.125 20.22 18.621 20.7465 18 20.7465C17.379 20.7465 16.875 20.22 16.875 19.5705V16.4295C16.875 15.78 17.379 15.2535 18 15.2535Z" fill="#001A54"/>
<path d="M11.3205 6.75C8.2335 6.7545 6.624 6.822 5.598 7.848C4.5 8.946 4.5 10.713 4.5 14.25V21.75C4.5 25.2855 4.5 27.0525 5.598 28.152C6.624 29.1765 8.2335 29.2455 11.3205 29.25C11.25 28.314 11.25 27.234 11.25 26.0655V9.9345C11.25 8.7645 11.25 7.6845 11.3205 6.75Z" fill="#001A54"/>
</svg>
