<svg width="35" height="36" viewBox="0 0 35 36" fill="none" xmlns="http://www.w3.org/2000/svg">
<path d="M19.2553 4.29838C18.7734 3.85313 18.1486 3.60681 17.5009 3.60681C16.8532 3.60681 16.2283 3.85313 15.7465 4.29838L6.1215 13.194C5.84752 13.447 5.62834 13.7564 5.4782 14.1021C5.32805 14.4479 5.2503 14.8223 5.25 15.201V27.9C5.25 28.6161 5.52656 29.3028 6.01884 29.8092C6.51113 30.3155 7.17881 30.6 7.875 30.6H11.375C12.0712 30.6 12.7389 30.3155 13.2312 29.8092C13.7234 29.3028 14 28.6161 14 27.9V20.7C14 20.4613 14.0922 20.2324 14.2563 20.0636C14.4204 19.8948 14.6429 19.8 14.875 19.8H20.125C20.3571 19.8 20.5796 19.8948 20.7437 20.0636C20.9078 20.2324 21 20.4613 21 20.7V27.9C21 28.6161 21.2766 29.3028 21.7688 29.8092C22.2611 30.3155 22.9288 30.6 23.625 30.6H27.125C27.8212 30.6 28.4889 30.3155 28.9812 29.8092C29.4734 29.3028 29.75 28.6161 29.75 27.9V15.201C29.7499 14.8224 29.6724 14.4481 29.5226 14.1024C29.3728 13.7566 29.1539 13.4471 28.8803 13.194L19.2553 4.29838Z" fill="#001A54"/>
</svg>
