<svg width="262" height="75" viewBox="0 0 262 75" fill="none" xmlns="http://www.w3.org/2000/svg">
<path d="M1.62096 70.171H3.34116C3.34116 71.0036 3.93662 71.6031 4.89596 71.6031C5.59066 71.6031 6.15303 71.2701 6.15303 70.6373C6.15303 69.9379 5.5245 69.6715 4.59823 69.3051C3.04344 68.6724 1.81945 68.2394 1.81945 66.7074C1.81945 65.1422 3.14268 64.3096 4.69748 64.3096C6.45076 64.3096 7.50935 65.4419 7.50935 67.0072H5.8553C5.8553 66.3078 5.39217 65.8082 4.6644 65.8082C4.00278 65.8082 3.53965 66.2412 3.53965 66.7074C3.53965 67.3402 4.30051 67.54 5.49142 68.0063C6.88081 68.5391 7.87323 69.1053 7.87323 70.5707C7.87323 72.1692 6.61616 73.1018 4.92904 73.1018C2.91111 73.1018 1.62096 71.9028 1.62096 70.171Z" fill="#00DCF9"/>
<path d="M36.2896 68.7057C36.2896 66.108 38.1091 64.3096 40.6894 64.3096C43.3028 64.3096 45.0891 66.0747 45.0891 68.7057C45.0891 71.3367 43.2697 73.1018 40.6894 73.1018C38.1091 73.1018 36.2896 71.3034 36.2896 68.7057ZM40.7225 71.5698C42.3104 71.5698 43.4351 70.4042 43.4351 68.6724C43.4351 66.9739 42.3434 65.8082 40.7225 65.8082C39.1346 65.8082 38.0098 66.9739 38.0098 68.6724C38.0098 70.4042 39.1346 71.5698 40.7225 71.5698Z" fill="#00DCF9"/>
<path d="M74.0349 64.4426H80.0225V65.9413H75.6889V68.6389H79.3939V70.1376H75.6889V72.9684H74.0349V64.4426Z" fill="#00DCF9"/>
<path d="M110.523 65.908H108.075V64.4426H114.592V65.908H112.177V72.9684H110.523V65.908Z" fill="#00DCF9"/>
<path d="M142.512 64.4426H144.199L145.853 70.6371L147.838 64.4426H149.658L151.609 70.6371L153.263 64.4426H154.951L152.536 72.9684H150.815L148.731 66.7739L146.647 72.9684H144.927L142.512 64.4426Z" fill="#00DCF9"/>
<path d="M185.186 64.4426H186.84L190.215 73.0017H188.494L187.701 70.9035H184.326L183.532 73.0017H181.812L185.186 64.4426ZM187.138 69.4382L186.013 66.4742L184.889 69.4382H187.138Z" fill="#00DCF9"/>
<path d="M218.796 64.4426H222.601C224.222 64.4426 225.346 65.5083 225.346 67.0403C225.346 68.2059 224.586 69.1718 223.461 69.5048L225.777 72.9684H223.891L221.674 69.638H220.451V72.9684H218.796V64.4426ZM222.535 68.1393C223.196 68.1393 223.626 67.7064 223.626 67.0403C223.626 66.3742 223.163 65.9413 222.535 65.9413H220.417V68.1393H222.535Z" fill="#00DCF9"/>
<path d="M254.358 64.4426H260.346V65.908H256.012V67.8063H259.717V69.305H256.012V71.503H260.346V72.9684H254.358V64.4426Z" fill="#00DCF9"/>
<path d="M1.62096 34.9023C1.62096 23.9454 9.29571 16.4854 19.9477 16.4854C29.6735 16.4854 36.8189 22.7798 38.3407 32.0382H29.5412C28.3833 27.3757 24.7114 24.2118 20.0139 24.2118C14.4563 24.2118 10.3212 28.5413 10.3212 34.9023C10.3212 41.2966 14.5225 45.5928 20.0139 45.5928C24.4136 45.5928 27.9533 43.1283 29.3758 38.8655H38.1753C36.3889 47.591 29.4088 53.286 19.9146 53.286C9.32879 53.286 1.62096 45.8925 1.62096 34.9023Z" fill="#001A54"/>
<path d="M53.3924 21.814H44.8907V52.7198H53.3924V21.814Z" fill="#001A54"/>
<path d="M62.0596 17.0848H70.4952V21.6474C71.3553 19.516 74.6303 16.4854 80.221 16.4854C88.2596 16.4854 94.4788 22.7131 94.4788 31.9716V52.6865H86.0101V32.1381C86.0101 27.3091 82.9005 24.0786 78.2692 24.0786C73.6379 24.0786 70.5283 27.3091 70.5283 32.1381V52.6865H62.0265V17.0848H62.0596Z" fill="#001A54"/>
<path d="M99.9374 35.0025C99.9374 23.9456 107.678 16.4856 118.396 16.4856C130.405 16.4856 138.08 26.0105 136.789 37.6668H108.77C109.365 42.6623 113.666 45.7263 118.297 45.7263C122.035 45.7263 125.707 43.7613 127.262 40.2978H136.194C133.812 48.1907 127.262 53.2862 118.198 53.2862C107.381 53.2862 99.9374 45.8262 99.9374 35.0025ZM127.725 31.0393C126.369 26.7764 122.895 24.0455 118.463 24.0455C113.997 24.0455 110.424 26.7431 109.101 31.1059L127.725 31.0393Z" fill="#001A54"/>
<path d="M141.288 39.8312H149.658C149.658 43.3281 152.271 45.7926 156.009 45.7926C158.523 45.7926 161.401 44.6935 161.401 42.2291C161.401 39.3316 157.862 38.9986 153.892 37.6665C148.831 36.0346 142.413 34.6691 142.413 27.2091C142.413 20.6815 147.474 16.1855 154.818 16.1855C162.394 16.1855 168.084 20.8814 168.084 27.5088H159.78C159.78 25.2775 157.762 23.7455 155.149 23.7455C152.701 23.7455 150.915 25.0443 150.915 27.0426C150.915 29.507 153.859 30.0066 157.663 31.2055C163.155 32.904 169.738 34.5026 169.738 41.9293C169.738 48.9897 163.816 53.2526 155.579 53.2526C146.945 53.2859 141.288 47.7575 141.288 39.8312Z" fill="#001A54"/>
<path d="M179.53 24.7448H173.013V17.0849H179.53V8.85889H188.031V17.0849H194.515V24.7448H188.031V52.6866H179.53V24.7448Z" fill="#001A54"/>
<path d="M197.757 34.8357C197.757 23.8788 205.101 16.4854 214.661 16.4854C219.392 16.4854 223.295 18.3504 225.975 21.5142V17.0848H234.344V52.6865H225.975V48.1905C223.295 51.421 219.392 53.286 214.661 53.286C205.101 53.286 197.757 45.8259 197.757 34.8357ZM216.249 45.5262C222.005 45.5262 226.107 41.2633 226.107 34.8357C226.107 28.4747 222.038 24.2784 216.249 24.2784C210.493 24.2784 206.391 28.508 206.391 34.8357C206.424 41.23 210.493 45.5262 216.249 45.5262Z" fill="#001A54"/>
<path d="M243.078 17.0848H251.447V22.1803C252.373 20.1488 255.351 16.8184 260.247 16.4854V25.1443C254.954 25.1443 251.546 28.7078 251.546 34.1696V52.6865H243.045V17.0848H243.078Z" fill="#001A54"/>
<path d="M56.4689 8.8588C56.4689 4.79575 53.1939 1.53198 49.1912 1.53198C45.1553 1.53198 41.9134 4.82905 41.9134 8.8588C41.9134 12.9219 45.1884 16.1856 49.1912 16.1856C53.227 16.2189 56.4689 12.9219 56.4689 8.8588Z" fill="#00DCF9"/>
</svg>
