<svg width="14" height="15" viewBox="0 0 14 15" fill="none" xmlns="http://www.w3.org/2000/svg">
<path d="M9.9165 2.44835C10.7963 2.95635 11.5282 3.68533 12.0397 4.56311C12.5512 5.4409 12.8246 6.43705 12.8328 7.45297C12.841 8.46888 12.5838 9.46932 12.0865 10.3553C11.5893 11.2412 10.8692 11.9819 9.99773 12.504C9.12623 13.0262 8.13347 13.3117 7.11773 13.3322C6.10199 13.3528 5.09849 13.1077 4.20658 12.6212C3.31466 12.1348 2.56526 11.4238 2.03256 10.5587C1.49986 9.69365 1.20233 8.70443 1.16942 7.68902L1.1665 7.50002L1.16942 7.31102C1.20209 6.3036 1.49524 5.32183 2.02029 4.46143C2.54535 3.60103 3.28439 2.89137 4.16536 2.40162C5.04633 1.91187 6.03917 1.65875 7.04709 1.66694C8.05501 1.67513 9.04361 1.94435 9.9165 2.44835ZM6.99984 4.00002C6.85696 4.00004 6.71906 4.05249 6.61229 4.14744C6.50552 4.24238 6.4373 4.37321 6.42059 4.5151L6.4165 4.58335V7.50002L6.42175 7.57643C6.43505 7.67764 6.47468 7.77359 6.53667 7.85468L6.58742 7.91302L8.33742 9.66302L8.39225 9.71085C8.49455 9.79022 8.62036 9.8333 8.74984 9.8333C8.87932 9.8333 9.00512 9.79022 9.10742 9.71085L9.16225 9.66243L9.21067 9.6076C9.29004 9.5053 9.33312 9.3795 9.33312 9.25002C9.33312 9.12054 9.29004 8.99474 9.21067 8.89244L9.16225 8.8376L7.58317 7.25794V4.58335L7.57909 4.5151C7.56237 4.37321 7.49416 4.24238 7.38739 4.14744C7.28062 4.05249 7.14271 4.00004 6.99984 4.00002Z" fill="#0038FF"/>
</svg>
