<svg width="14" height="15" viewBox="0 0 14 15" fill="none" xmlns="http://www.w3.org/2000/svg">
<path d="M9.91666 2.44835C10.7965 2.95635 11.5284 3.68533 12.0399 4.56311C12.5514 5.4409 12.8248 6.43705 12.833 7.45297C12.8412 8.46888 12.5839 9.46932 12.0867 10.3553C11.5894 11.2412 10.8694 11.9819 9.99788 12.504C9.12638 13.0262 8.13362 13.3117 7.11788 13.3322C6.10214 13.3528 5.09864 13.1077 4.20673 12.6212C3.31482 12.1348 2.56541 11.4238 2.03271 10.5587C1.50001 9.69365 1.20248 8.70443 1.16957 7.68902L1.16666 7.50002L1.16957 7.31102C1.20224 6.3036 1.49539 5.32183 2.02045 4.46143C2.5455 3.60103 3.28454 2.89137 4.16551 2.40162C5.04648 1.91187 6.03933 1.65875 7.04724 1.66694C8.05516 1.67513 9.04376 1.94435 9.91666 2.44835ZM6.99999 4.00002C6.85711 4.00004 6.71921 4.05249 6.61244 4.14744C6.50567 4.24238 6.43746 4.37321 6.42074 4.5151L6.41666 4.58335V7.50002L6.42191 7.57643C6.43521 7.67764 6.47483 7.77359 6.53682 7.85468L6.58757 7.91302L8.33757 9.66302L8.39241 9.71085C8.49471 9.79022 8.62051 9.8333 8.74999 9.8333C8.87947 9.8333 9.00527 9.79022 9.10757 9.71085L9.16241 9.66243L9.21082 9.6076C9.29019 9.5053 9.33327 9.3795 9.33327 9.25002C9.33327 9.12054 9.29019 8.99474 9.21082 8.89244L9.16241 8.8376L7.58332 7.25794V4.58335L7.57924 4.5151C7.56252 4.37321 7.49431 4.24238 7.38754 4.14744C7.28077 4.05249 7.14287 4.00004 6.99999 4.00002Z" fill="#0038FF"/>
</svg>
