<svg width="30" height="29" viewBox="0 0 30 29" fill="none" xmlns="http://www.w3.org/2000/svg">
<path d="M14.925 23.2C15.45 23.2 15.894 23.0245 16.257 22.6736C16.62 22.3227 16.801 21.894 16.8 21.3875C16.799 20.8809 16.618 20.4517 16.257 20.0999C15.896 19.748 15.452 19.573 14.925 19.575C14.398 19.5769 13.9545 19.7524 13.5945 20.1013C13.2345 20.4503 13.053 20.879 13.05 21.3875C13.047 21.8959 13.2285 22.3251 13.5945 22.6751C13.9605 23.025 14.404 23.2 14.925 23.2ZM13.575 17.6175H16.35C16.35 16.82 16.444 16.1917 16.632 15.7325C16.82 15.2733 17.351 14.645 18.225 13.8475C18.875 13.2192 19.3875 12.6208 19.7625 12.0524C20.1375 11.484 20.325 10.8015 20.325 10.005C20.325 8.65166 19.8125 7.6125 18.7875 6.8875C17.7625 6.1625 16.55 5.8 15.15 5.8C13.725 5.8 12.569 6.1625 11.682 6.8875C10.795 7.6125 10.176 8.4825 9.825 9.4975L12.3 10.44C12.425 10.005 12.7065 9.53375 13.1445 9.02625C13.5825 8.51875 14.251 8.265 15.15 8.265C15.95 8.265 16.55 8.4767 16.95 8.9001C17.35 9.3235 17.55 9.78846 17.55 10.295C17.55 10.7783 17.4 11.2317 17.1 11.6551C16.8 12.0785 16.425 12.471 15.975 12.8325C14.875 13.775 14.2 14.4879 13.95 14.9712C13.7 15.4546 13.575 16.3367 13.575 17.6175ZM15 29C12.925 29 10.975 28.6196 9.15 27.8588C7.325 27.0981 5.7375 26.0647 4.3875 24.7587C3.0375 23.4528 1.969 21.9182 1.182 20.155C0.395002 18.3918 0.0010019 16.5068 1.89873e-06 14.5C-0.000998101 12.4932 0.393002 10.6082 1.182 8.845C1.971 7.0818 3.0395 5.54722 4.3875 4.24125C5.7355 2.93529 7.323 1.90241 9.15 1.14261C10.977 0.382807 12.927 0.00194065 15 7.32322e-06C17.073 -0.00192601 19.023 0.37894 20.85 1.14261C22.677 1.90627 24.2645 2.93915 25.6125 4.24125C26.9605 5.54335 28.0295 7.07793 28.8195 8.845C29.6095 10.6121 30.003 12.4971 30 14.5C29.997 16.5029 29.603 18.3879 28.818 20.155C28.033 21.922 26.9645 23.4566 25.6125 24.7587C24.2605 26.0608 22.673 27.0942 20.85 27.8588C19.027 28.6235 17.077 29.0038 15 29Z" fill="#001A54"/>
</svg>
